<svg width="50" height="43" viewBox="0 0 50 43" fill="none" xmlns="http://www.w3.org/2000/svg">
<path d="M8.98887 5.75C9.98887 4.21666 11.2389 3.01667 12.7389 2.15C14.2389 1.25 15.9055 0.799999 17.7389 0.799999V9.85H15.3889C13.2555 9.85 11.6555 10.3167 10.5889 11.25C9.5222 12.15 8.98887 13.75 8.98887 16.05V29H0.438867V1.1H8.98887V5.75Z" fill="#BC4749"/>
<path d="M32.4256 0.699998C34.3923 0.699998 36.1089 1.1 37.5756 1.9C39.0756 2.7 40.2256 3.75 41.0256 5.05V1.1H49.5756V28.95C49.5756 31.5167 49.0589 33.8333 48.0256 35.9C47.0256 38 45.4756 39.6667 43.3756 40.9C41.3089 42.1333 38.7256 42.75 35.6256 42.75C31.4923 42.75 28.1423 41.7667 25.5756 39.8C23.0089 37.8667 21.5423 35.2333 21.1756 31.9H29.6256C29.8923 32.9667 30.5256 33.8 31.5256 34.4C32.5256 35.0333 33.7589 35.35 35.2256 35.35C36.9923 35.35 38.3923 34.8333 39.4256 33.8C40.4923 32.8 41.0256 31.1833 41.0256 28.95V25C40.1923 26.3 39.0423 27.3667 37.5756 28.2C36.1089 29 34.3923 29.4 32.4256 29.4C30.1256 29.4 28.0423 28.8167 26.1756 27.65C24.3089 26.45 22.8256 24.7667 21.7256 22.6C20.6589 20.4 20.1256 17.8667 20.1256 15C20.1256 12.1333 20.6589 9.61667 21.7256 7.45C22.8256 5.28333 24.3089 3.61667 26.1756 2.45C28.0423 1.28333 30.1256 0.699998 32.4256 0.699998ZM41.0256 15.05C41.0256 12.9167 40.4256 11.2333 39.2256 10C38.0589 8.76667 36.6256 8.15 34.9256 8.15C33.2256 8.15 31.7756 8.76667 30.5756 10C29.4089 11.2 28.8256 12.8667 28.8256 15C28.8256 17.1333 29.4089 18.8333 30.5756 20.1C31.7756 21.3333 33.2256 21.95 34.9256 21.95C36.6256 21.95 38.0589 21.3333 39.2256 20.1C40.4256 18.8667 41.0256 17.1833 41.0256 15.05Z" fill="#A3B18A"/>
</svg>
